<?xml version="1.0" standalone="no"?>
<!DOCTYPE svg PUBLIC "-//W3C//DTD SVG 20010904//EN"
 "http://www.w3.org/TR/2001/REC-SVG-20010904/DTD/svg10.dtd">
<svg version="1.0" xmlns="http://www.w3.org/2000/svg"
 width="500.000000pt" height="500.000000pt" viewBox="0 0 500.000000 500.000000"
 preserveAspectRatio="xMidYMid meet">

<g transform="translate(0.000000,500.000000) scale(0.100000,-0.100000)"
fill="#000000" stroke="none">
<path d="M2198 3763 c-166 -96 -422 -244 -568 -328 -146 -84 -291 -168 -322
-186 l-58 -33 0 -716 0 -716 626 -361 625 -361 187 107 c576 331 1049 605
1060 614 9 7 12 159 10 720 l-3 711 -240 139 c-217 126 -788 455 -875 504 -19
11 -58 34 -87 51 l-51 30 -304 -175z m272 -108 l0 -195 -42 -26 c-107 -63
-705 -407 -724 -416 -29 -13 -363 178 -342 197 7 7 184 110 393 230 427 245
568 327 575 335 8 8 124 69 133 70 4 0 7 -88 7 -195z m216 114 c77 -44 143
-84 147 -88 7 -7 -279 -181 -297 -181 -3 0 -6 79 -6 175 0 96 4 175 9 175 5 0
71 -36 147 -81z m451 -260 c61 -35 109 -67 107 -71 -2 -3 -57 -37 -122 -73
-64 -37 -132 -76 -149 -87 l-33 -20 0 182 0 182 43 -24 c23 -14 92 -53 154
-89z m-257 -88 l0 -190 -27 -19 c-16 -10 -120 -72 -233 -137 -113 -65 -275
-159 -360 -208 -85 -49 -160 -90 -165 -90 -13 0 -335 185 -335 193 0 3 168
102 373 220 204 118 451 261 547 317 96 56 181 103 188 103 9 0 12 -44 12
-189z m400 -238 l0 -198 -108 -62 c-59 -33 -232 -134 -385 -222 -153 -89 -281
-161 -284 -161 -6 0 -324 180 -336 190 -4 4 63 48 150 97 87 50 338 195 558
322 220 127 401 231 402 231 2 0 3 -89 3 -197z m230 111 c83 -47 150 -87 148
-89 -15 -14 -303 -173 -307 -171 -7 4 -3 346 4 346 2 0 72 -39 155 -86z
m-1988 -264 c54 -30 98 -57 98 -60 0 -3 -44 -30 -97 -60 -53 -30 -122 -70
-155 -88 l-58 -34 0 182 0 181 58 -33 c31 -18 101 -58 154 -88z m2168 -529 l0
-649 -170 96 -169 97 0 455 0 455 167 97 c92 53 168 97 170 97 1 1 2 -291 2
-648z m-1773 300 c122 -70 227 -131 235 -134 7 -4 81 -46 163 -94 l150 -88 3
-198 c1 -108 0 -197 -4 -197 -3 0 -47 24 -97 54 -51 30 -180 104 -287 166
-107 62 -229 132 -270 156 -41 24 -160 93 -264 152 -103 60 -187 113 -186 118
3 10 308 192 325 193 6 1 110 -57 232 -128z m1361 -861 l-3 -319 -167 97 -168
96 0 451 0 451 168 97 167 97 3 -326 c1 -179 1 -469 0 -644z m-1756 620 c54
-30 98 -57 98 -60 0 -3 -33 -23 -72 -45 -39 -22 -107 -61 -151 -87 -44 -27
-82 -48 -84 -48 -1 0 -3 81 -3 181 l0 180 58 -33 c31 -18 101 -58 154 -88z
m1358 -530 c0 -390 -4 -640 -9 -640 -5 0 -83 42 -173 94 l-163 94 0 453 0 452
160 93 c88 51 166 93 173 94 9 0 12 -134 12 -640z m-804 210 c199 -116 369
-213 378 -216 14 -5 16 -33 16 -205 0 -109 -2 -199 -4 -199 -7 0 -1099 630
-1109 640 -5 4 31 30 80 58 48 28 124 71 168 96 44 26 86 44 94 41 8 -3 177
-100 377 -215z m-641 -100 c61 -35 127 -74 148 -87 l39 -24 -129 -76 c-70 -41
-140 -81 -155 -89 l-28 -15 0 181 c0 100 3 179 8 177 4 -2 57 -33 117 -67z
m502 -291 c125 -72 296 -170 380 -218 l152 -86 1 -199 c0 -185 -1 -198 -17
-191 -10 3 -106 57 -213 120 -107 62 -350 202 -539 312 -189 109 -344 202
-345 206 -2 13 327 198 341 193 7 -3 115 -64 240 -137z m1575 31 c125 -71 145
-85 130 -95 -30 -21 -281 -165 -287 -165 -3 0 -5 79 -5 176 0 96 3 173 8 171
4 -2 73 -41 154 -87z m-365 -258 c56 -31 102 -59 102 -62 1 -3 -43 -30 -96
-60 -53 -30 -122 -70 -155 -88 l-58 -34 0 182 0 182 53 -31 c28 -17 98 -57
154 -89z m-455 -208 c82 -48 146 -90 141 -95 -13 -13 -285 -169 -294 -169 -5
0 -9 79 -9 175 0 96 3 175 7 175 3 0 73 -39 155 -86z"/>
</g>
</svg>
